<svg class="img-fluid" id="outputsvg" xmlns="http://www.w3.org/2000/svg" style="transform: none; transform-origin: 50% 50%; cursor: move; max-height: none;" width="240" height="68" viewBox="0 0 2400 680"><g id="l3lf0RnwsoefZL2BXwkOWsr" fill="rgb(255,255,255)" style="transform: none;"><g><path id="p1dR67lfl" d="M200 595 c-15 -17 -5 -49 13 -42 6 2 12 14 11 26 -1 30 22 26 34 -6 6 -16 11 -22 11 -15 3 43 -44 68 -69 37z"></path><path id="pOJvaxjre" d="M410 567 c0 -7 5 -18 12 -25 9 -9 -30 -11 -167 -11 -98 0 -180 -3 -183 -6 -3 -3 23 -5 58 -5 60 0 62 -1 47 -18 -24 -26 -21 -63 8 -106 16 -23 25 -51 25 -75 0 -20 7 -46 15 -57 15 -19 15 -19 30 1 25 32 4 96 -52 152 -28 27 -29 57 -3 83 29 29 50 26 46 -7 -2 -16 -1 -21 1 -13 11 34 26 40 104 40 l78 0 -5 -77 c-3 -43 -9 -100 -14 -128 -7 -41 -6 -52 8 -62 38 -30 145 -4 200 47 29 27 28 64 -6 126 -40 75 -60 96 -125 127 -65 30 -77 33 -77 14z m104 -68 c36 -28 73 -88 81 -130 5 -28 2 -38 -18 -57 -28 -26 -91 -45 -121 -36 -17 6 -18 14 -12 88 3 44 6 98 6 119 0 44 21 50 64 16z m-264 -195 c0 -13 -4 -24 -9 -24 -11 0 -21 25 -21 52 0 17 3 18 15 8 8 -7 15 -23 15 -36z"></path><path id="pSBPxnHFM" d="M674 558 c15 -52 18 -78 10 -78 -5 0 -9 -35 -9 -77 0 -43 -3 -97 -7 -120 -8 -39 -6 -42 20 -51 71 -24 203 33 210 92 4 32 -44 137 -81 178 -24 26 -115 78 -138 78 -7 0 -9 -8 -5 -22z m106 -76 c67 -70 92 -132 70 -172 -21 -39 -128 -67 -145 -39 -4 6 -4 64 0 130 8 137 16 145 75 81z"></path><path id="pOdmzq6ID" d="M1517 574 c-4 -4 -7 -16 -7 -26 0 -17 -12 -18 -186 -18 -116 0 -193 4 -206 11 -15 8 -22 8 -27 0 -9 -14 -101 -11 -101 3 0 6 -4 5 -9 -3 -5 -8 -7 -21 -4 -29 4 -10 0 -13 -13 -10 -10 2 -19 10 -19 17 0 8 -6 16 -13 19 -13 4 -12 0 23 -85 10 -24 22 -43 27 -43 7 0 13 64 9 98 -1 6 2 12 8 12 5 0 9 -21 9 -46 0 -25 3 -48 6 -51 3 -3 15 12 28 32 24 42 36 32 19 -15 -7 -22 -7 -30 2 -30 7 0 13 18 15 42 1 22 7 48 13 57 8 12 9 8 5 -16 -3 -19 -1 -33 4 -33 6 0 10 14 10 30 0 17 4 30 8 30 15 0 40 -34 47 -62 5 -20 2 -29 -13 -37 -30 -16 -42 -14 -52 12 -8 21 -9 21 -9 -5 -1 -25 2 -28 32 -28 34 0 67 24 67 49 0 7 -9 26 -21 42 l-20 29 50 0 50 0 25 -52 c13 -29 37 -89 52 -132 33 -91 50 -105 59 -49 14 81 24 80 59 -9 27 -69 52 -75 61 -16 3 24 6 54 7 68 0 26 15 129 23 168 5 19 12 22 48 22 l42 0 -5 -98 c-6 -110 -18 -137 -75 -175 -19 -12 -35 -25 -35 -29 0 -16 33 -7 62 17 16 14 37 25 45 25 9 0 40 -23 69 -50 29 -28 58 -50 65 -50 15 0 -1 19 -64 78 l-47 45 2 116 c3 114 3 116 28 122 15 4 -5 7 -47 8 -69 1 -73 2 -70 23 2 22 -22 36 -36 22z m-467 -84 c-12 -16 -23 -30 -26 -30 -2 0 -4 14 -4 30 0 26 4 30 26 30 l25 0 -21 -30z m455 -12 c-22 -143 -28 -169 -39 -165 -6 2 -20 33 -31 70 -32 107 -65 117 -65 21 0 -46 -3 -55 -17 -52 -11 2 -22 26 -34 78 -10 41 -18 78 -19 83 0 4 48 7 106 7 l106 0 -7 -42z"></path><path id="pd0lHjXmf" d="M2098 513 c0 -10 0 -31 1 -48 9 -162 19 -215 41 -215 14 0 12 38 -5 144 -8 49 -12 93 -9 97 3 5 51 9 106 8 58 0 103 3 107 9 3 6 20 12 36 15 17 2 -39 5 -122 6 -139 1 -153 -1 -155 -16z"></path><path id="p12SFndxs3" d="M1786 511 c-10 -16 38 -131 54 -131 15 0 12 26 -4 39 -14 11 -29 51 -19 51 20 0 73 -102 73 -141 0 -10 -2 -19 -3 -19 -2 0 -36 16 -76 35 -109 53 -124 47 -70 -31 42 -62 129 -105 142 -70 8 20 -31 55 -42 37 -15 -24 -91 29 -91 63 0 12 20 5 55 -18 20 -14 52 -30 72 -37 31 -10 38 -9 48 4 14 20 31 9 53 -34 35 -71 111 -36 103 48 -1 7 -22 13 -53 15 l-53 3 -3 49 c-4 69 4 96 30 96 12 0 18 -3 15 -7 -4 -3 1 -12 10 -18 10 -7 22 -28 28 -46 15 -43 41 -54 31 -13 -9 38 -37 75 -69 94 -23 13 -28 13 -46 -4 -17 -16 -21 -31 -21 -82 0 -62 -14 -93 -26 -57 -18 51 -51 111 -82 145 -35 39 -47 45 -56 29z m262 -235 c4 -21 -14 -37 -34 -29 -16 6 -26 32 -18 44 10 17 49 5 52 -15z"></path><path id="pjdENIWYn" d="M268 485 c-2 -23 -9 -31 -26 -33 -19 -3 -23 0 -20 17 2 11 -1 21 -7 23 -18 5 -16 -36 2 -58 14 -18 21 -20 40 -11 27 12 39 48 25 73 -9 16 -11 14 -14 -11z"></path><path id="pCL8nbXTp" d="M2219 473 c-1 -5 -2 -33 -4 -63 -1 -30 -7 -82 -13 -115 -5 -33 -9 -60 -8 -61 5 -3 137 -24 150 -24 9 0 16 4 16 9 0 5 -25 12 -57 16 -74 9 -83 13 -83 37 0 22 18 22 133 2 23 -4 37 -3 37 4 0 12 -26 19 -103 28 -32 4 -59 10 -61 13 -2 3 2 33 9 66 12 61 10 95 -6 95 -5 0 -9 -3 -10 -7z"></path></g></g></svg>